# generated from PmQm by Jehee Lee
:FULLY-SPECIFIED
:DEGREES
538
root 70.8215277 38.4781 -3.446753476 169.4813262 -71.4518646 -168.1139959
RightUpLeg 0.9001742257 1.148927584 1.885781957
RightLeg 26.76784011 0 0
RightFoot -31.47840646 46.54354947 -24.08770729
RightToes 2.32829e-010 -1.59028e-015 9.93923e-017
Spine -12.4809 6.07 16.131
Spine1 16.6758 7.5605 -10.1947
HEad -9.91584 -5.61014 1.72987
LeftShoulder1 9.93923e-017 0 1.22299e-017
LeftArm -9.17442 54.3413 -65.0809
LeftForeArm -4.28792 -3.67452 -5.31467
LeftHand 0.976454 6.86272 -5.07199
RightShoulder 1.98785e-016 -4.96962e-017 1.55301e-017
RightArm 19.3593 -21.2995 82.9588
RightForeArm -44.8823 27.7921 -25.1879
RightHand 1.1632 -10.207 -6.55283
LeftUpLeg -28.80728213 -2.407803689 1.383417341
LeftLeg 2.102161624 0 0
LeftFoot 2.620450746 1.159142584 -8.120510448
LeftToes 8.82235e-011 9.04645e-011 1.87288e-011
539
root 69.38752491 38.3992 -4.391594629 175.3824499 -67.97373762 -173.7888593
RightUpLeg 1.015063714 -0.64699402 -1.037165728
RightLeg 30.18507749 0 0
RightFoot -34.56964285 50.81434169 -30.37175402
RightToes 2.32829e-010 -1.59028e-015 9.93923e-017
Spine -12.9619 6.48979 14.6785
Spine1 16.9032 8.37685 -10.7635
HEad -9.95357 -5.53207 1.71529
LeftShoulder1 9.93923e-017 0 1.22299e-017
LeftArm -10.4968 54.0093 -66.1619
LeftForeArm -4.69278 -3.83271 -5.16164
LeftHand 0.972732 6.82958 -4.8704
RightShoulder 1.98785e-016 -4.96962e-017 1.55301e-017
RightArm 21.128 -23.8806 83.8761
RightForeArm -46.265 25.967 -23.8724
RightHand 1.1413 -10.0446 -6.63461
LeftUpLeg -28.10327555 -2.714064417 1.963573409
LeftLeg 4.747505317 0 0
LeftFoot 5.843755209 3.42313776 -4.192934478
LeftToes 8.82235e-011 9.04645e-011 1.87288e-011
540
root 68.14039391 38.41137577 -5.641276603 -179.136536 -65.71600714 -179.5173008
RightUpLeg 0.2467964647 -3.293923759 -3.159344887
RightLeg 35.1965849 0 0
RightFoot -30.33854348 50.54507202 -38.85589483
RightToes 2.32829e-010 -1.59028e-015 9.93923e-017
Spine -12.66719625 5.540481784 10.99942851
Spine1 15.9615952 7.528856474 -10.68229244
HEad -9.20112049 -5.217998903 2.316593388
LeftShoulder1 9.93923e-017 0 1.22299e-017
LeftArm -11.70516909 52.82736869 -67.28620872
LeftForeArm -5.529452188 -3.703602121 -5.188081799
LeftHand 1.02661 7.3694 -4.41701
RightShoulder 1.98785e-016 -4.96962e-017 1.55301e-017
RightArm 25.11560053 -27.33790153 85.93115987
RightForeArm -48.41120236 24.4836114 -22.94891294
RightHand 1.19146 -10.4042 -6.50393
LeftUpLeg -27.28074745 -2.120413745 2.194744262
LeftLeg 8.605186272 0 0
LeftFoot 5.943207567 5.181604617 -5.070226478
LeftToes 8.82235e-011 9.04645e-011 1.87288e-011
541
root 67.00749828 38.40759866 -6.769797554 -174.865297 -64.28293192 175.8744304
RightUpLeg -2.305953836 -4.48082497 -4.689492067
RightLeg 43.19897438 0 0
RightFoot -21.60997502 45.36280102 -48.27284651
RightToes 2.32829e-010 -1.59028e-015 9.93923e-017
Spine -10.80497685 3.879197811 6.711755758
Spine1 14.21047052 5.898573178 -10.27596106
HEad -9.356503806 -4.691262502 2.837931317
LeftShoulder1 9.93923e-017 0 1.22299e-017
LeftArm -11.25042111 49.76714594 -68.94589826
LeftForeArm -6.340785174 -3.82537775 -5.561190529
LeftHand 1.0097 7.20765 -5.05441
RightShoulder 1.98785e-016 -4.96962e-017 1.55301e-017
RightArm 28.6562778 -30.59627422 88.18877302
RightForeArm -51.86194915 22.11632745 -20.82756746
RightHand 1.16096 -10.3732 -5.78301
LeftUpLeg -26.49026301 -1.50340155 2.16436258
LeftLeg 13.8665369 0 0
LeftFoot 2.792810329 4.452505048 -5.967273614
LeftToes 8.82235e-011 9.04645e-011 1.87288e-011
542
root 65.97047225 38.40860858 -7.775145475 -172.1303642 -62.32561731 172.7576122
RightUpLeg -7.095264364 -3.32230786 -6.411695544
RightLeg 53.0025824 -2.731353981 -5.753825207
RightFoot -4.152283048 51.99077746 -29.81351503
RightToes 2.32829e-010 -1.59028e-015 9.93923e-017
Spine -8.615737823 2.739157942 2.825787768
Spine1 13.05120699 4.637527439 -9.763503017
HEad -10.24917151 -4.023258346 2.809232198
LeftShoulder1 9.93923e-017 0 1.22299e-017
LeftArm -9.244655508 44.94620471 -71.2246392
LeftForeArm -7.754399472 -4.268921786 -6.17987125
LeftHand 0.992905 7.03592 -5.03757
RightShoulder 1.98785e-016 -4.96962e-017 1.55301e-017
RightArm 26.74857932 -33.49647376 89.80611261
RightForeArm -50.5587284 20.74354785 -16.03337121
RightHand 1.09086 -10.2491 -4.27313
LeftUpLeg -25.09195983 -1.173502 2.694501248
LeftLeg 18.6655243 0 0
LeftFoot -0.9106711476 3.879838106 -7.093800856
LeftToes 8.82235e-011 9.04645e-011 1.87288e-011
543
root 64.92011763 38.53700323 -8.757681411 -171.3929489 -59.58064344 171.6679885
RightUpLeg -11.71452264 -1.378493943 -7.250623949
RightLeg 60.13951977 -3.625541928 -10.95044564
RightFoot 7.569758637 48.25749538 -15.47853798
RightToes 2.32829e-010 -1.59028e-015 9.93923e-017
Spine -7.156561866 2.192774118 -0.3495186524
Spine1 12.58159011 3.779607961 -8.859403652
HEad -10.95362685 -3.058958446 2.324656645
LeftShoulder1 9.93923e-017 0 1.22299e-017
LeftArm -6.599681884 39.93016714 -73.60455984
LeftForeArm -10.45827374 -5.325537262 -6.581468644
LeftHand 0.970123 6.82072 -4.29005
RightShoulder 1.98785e-016 -4.96962e-017 1.55301e-017
RightArm 20.68931634 -36.20283342 90.30526425
RightForeArm -43.36041459 19.73561349 -9.223474288
RightHand 1.03939 -10.2002 -2.94224
LeftUpLeg -22.35383129 -1.16182104 3.723449816
LeftLeg 21.06446231 0 0
LeftFoot -3.237435015 4.654040684 -8.820599356
LeftToes 8.82235e-011 9.04645e-011 1.87288e-011
544
root 63.77697409 38.80596671 -9.804924267 -172.3407857 -57.24558037 172.3982259
RightUpLeg -15.47752654 -0.3542181905 -6.817430034
RightLeg 63.76107775 -2.427206671 -13.05353291
RightFoot 9.178136451 41.42753866 -9.463920461
RightToes 2.32829e-010 -1.59028e-015 9.93923e-017
Spine -6.580303668 1.426715935 -2.500291036
Spine1 12.02732856 2.53177302 -7.099113957
HEad -10.67315642 -1.707370066 1.845580681
LeftShoulder1 9.93923e-017 0 1.22299e-017
LeftArm -3.809392417 36.06141893 -75.4896582
LeftForeArm -14.22375103 -8.752497789 -5.514277912
LeftHand 0.942205 6.57551 -3.70458
RightShoulder 1.98785e-016 -4.96962e-017 1.55301e-017
RightArm 18.87628383 -39.36248856 90.13882366
RightForeArm -38.50217185 18.41094486 -4.684044826
RightHand 1.03827 -10.3208 -2.49664
LeftUpLeg -18.21547545 -1.114479771 5.060717941
LeftLeg 20.57218023 0 0
LeftFoot -4.429962245 5.538136437 -10.79707472
LeftToes 8.82235e-011 9.04645e-011 1.87288e-011
545
root 62.60033709 39.10022876 -10.85829434 -173.8875023 -55.8050814 173.8778999
RightUpLeg -18.41981771 -0.4360154431 -5.430475706
RightLeg 64.02214132 0.07758703738 -11.37364667
RightFoot 6.371381565 34.501132 -7.705269559
RightToes 2.32829e-010 -1.59028e-015 9.93923e-017
Spine -6.315187585 0.1881540979 -4.080899583
Spine1 11.21637537 0.7403442811 -4.786584006
HEad -9.704885422 -0.1793111848 1.644131506
LeftShoulder1 9.93923e-017 0 1.22299e-017
LeftArm 3.522023335 33.1756349 -76.94828246
LeftForeArm -23.2206879 -14.72302294 -1.994601734
LeftHand 0.92793 6.45217 -3.57146
RightShoulder 1.98785e-016 -4.96962e-017 1.55301e-017
RightArm 20.91748875 -43.21982022 89.5968458
RightForeArm -37.60342559 17.83731527 -3.186553323
RightHand 1.04716 -10.4116 -2.45404
LeftUpLeg -13.42200271 -1.018796108 6.409506753
LeftLeg 18.12960149 0 0
LeftFoot -5.075431621 5.839126432 -12.5129438
LeftToes 8.82235e-011 9.04645e-011 1.87288e-011
546
root 61.45248514 39.3243055 -11.85675687 -175.3106115 -54.48750455 175.2696114
RightUpLeg -21.01509603 -0.6737881596 -3.863851775
RightLeg 61.71105028 2.541118332 -8.285491126
RightFoot 3.875580446 28.20470512 -6.21672807
RightToes 2.32829e-010 -1.59028e-015 9.93923e-017
Spine -6.224798102 -1.022952818 -5.439737597
Spine1 10.74555347 -0.9501929401 -2.762801687
HEad -8.939168264 1.155813541 1.581018609
LeftShoulder1 9.93923e-017 0 1.22299e-017
LeftArm 16.56862281 30.40327029 -78.14285115
LeftForeArm -38.25626847 -20.89606089 4.907431017
LeftHand 0.925915 6.44464 -3.3863
RightShoulder 1.98785e-016 -4.96962e-017 1.55301e-017
RightArm 22.97534893 -47.46687037 88.38872627
RightForeArm -38.47724037 17.9757794 -3.561399452
RightHand 1.02044 -10.2376 -2.25741
LeftUpLeg -8.513188754 -0.6380618655 7.461843498
LeftLeg 14.78529347 0 0
LeftFoot -5.163788684 5.979841546 -13.84467895
LeftToes 8.82235e-011 9.04645e-011 1.87288e-011
547
root 60.32289725 39.45480002 -12.81257588 -176.3462884 -52.87355222 176.2449926
RightUpLeg -23.35119669 -0.8071776116 -2.495949317
RightLeg 57.34982706 4.296528137 -5.758151954
RightFoot 1.805652853 22.42617909 -4.158921618
RightToes 2.32829e-010 -1.59028e-015 9.93923e-017
Spine -6.476834001 -1.996266867 -6.638626845
Spine1 10.81716567 -2.272585215 -1.176215133
HEad -8.783275448 2.163025137 1.510925589
LeftShoulder1 9.93923e-017 0 1.22299e-017
LeftArm 28.24911652 27.30387139 -78.72481338
LeftForeArm -50.97349422 -24.47461644 12.78925711
LeftHand 0.913312 6.34459 -3.16304
RightShoulder 1.98785e-016 -4.96962e-017 1.55301e-017
RightArm 24.95092971 -51.58391205 86.49370238
RightForeArm -40.64563351 18.51131628 -5.096103606
RightHand 0.9969 -10.0451 -2.20697
LeftUpLeg -3.300592702 0.02540591926 8.049288698
LeftLeg 10.48051093 0 0
LeftFoot -4.540881465 6.45356331 -14.78023737
LeftToes 8.82235e-011 9.04645e-011 1.87288e-011
548
root 59.20074653 39.52211482 -13.74200945 -177.1389439 -51.40101675 176.9829343
RightUpLeg -25.29846982 -1.461436295 -1.307138519
RightLeg 51.1340069 5.477793276 -4.028271365
RightFoot -0.05948358246 17.28432426 -1.704191499
RightToes 2.32829e-010 -1.59028e-015 9.93923e-017
Spine -6.788023987 -2.989844041 -7.723762149
Spine1 10.93477683 -3.545371936 0.5403474714
HEad -8.843318695 2.986940174 1.472876773
LeftShoulder1 9.93923e-017 0 1.22299e-017
LeftArm 31.88723707 23.92340025 -78.45912758
LeftForeArm -53.63688285 -26.43298621 17.1456967
LeftHand 0.89027 6.12658 -3.34082
RightShoulder 1.98785e-016 -4.96962e-017 1.55301e-017
RightArm 27.40953019 -55.24304649 84.25524685
RightForeArm -43.19013309 19.08278336 -7.056815929
RightHand 1.02418 -10.1508 -2.66158
LeftUpLeg 3.327445184 0.6032614254 7.89894692
LeftLeg 2.777061733 0 0
LeftFoot -2.46585572 7.707595706 -15.07416264
LeftToes 8.82235e-011 9.04645e-011 1.87288e-011
549
root 58.10751225 39.52645185 -14.63389804 -177.7474485 -50.22280133 177.5766695
RightUpLeg -26.79606076 -2.744613007 -0.3093722487
RightLeg 43.22855638 6.324906247 -2.835847937
RightFoot -0.6165584161 13.00989339 0.531866333
RightToes 2.32829e-010 -1.59028e-015 9.93923e-017
Spine -6.845519161 -4.022498645 -8.720262644
Spine1 10.81351879 -4.81636505 2.402248215
HEad -8.700458735 3.742787612 1.490087455
LeftShoulder1 9.93923e-017 0 1.22299e-017
LeftArm 30.01286693 20.50987836 -77.73300493
LeftForeArm -49.90317989 -28.37589464 18.07386607
LeftHand 0.874162 5.96507 -3.53657
RightShoulder 1.98785e-016 -4.96962e-017 1.55301e-017
RightArm 28.9357223 -58.30468862 81.8964138
RightForeArm -44.13277519 19.34946355 -8.402974779
RightHand 1.06596 -10.3388 -3.23031
LeftUpLeg 9.149692865 0.7229569417 7.598385941
LeftLeg -3.756877186 0 0
LeftFoot -1.298842674 9.308209535 -15.0434607
LeftToes 8.82235e-011 9.04645e-011 1.87288e-011
550
root 57.04474801 39.4131 -15.49835824 -177.942332 -48.89558882 177.7780128
RightUpLeg -27.82890857 -3.799711553 0.3850710578
RightLeg 33.94411907 6.637007484 -2.23623369
RightFoot 0.1575490167 9.51133671 2.318293608
RightToes 2.32829e-010 -1.59028e-015 9.93923e-017
Spine -6.99225 -4.80394 -9.49489
Spine1 10.8103 -5.72047 3.70045
HEad -8.50494 4.3499 1.50706
LeftShoulder1 9.93923e-017 0 1.22299e-017
LeftArm 29.324 17.2202 -77.0933
LeftForeArm -48.1612 -29.8036 18.6995
LeftHand 0.872868 5.99207 -3.07255
RightShoulder 1.98785e-016 -4.96962e-017 1.55301e-017
RightArm 28.776 -60.6454 79.5323
RightForeArm -43.3166 19.3197 -8.73957
RightHand 1.06334 -10.2749 -3.3763
LeftUpLeg 11.77093689 0.2545468781 7.594638344
LeftLeg -3.756877186 0 0
LeftFoot -3.266323577 10.77573948 -15.09503175
LeftToes 8.82235e-011 9.04645e-011 1.87288e-011
